<svg xmlns="http://www.w3.org/2000/svg" viewBox="0 0 32 32"><path d="M29.76,13.35a1,1,0,0,0-1.41-.11L25,16.11V5.33A4.33,4.33,0,0,0,20.67,1H11.33A4.33,4.33,0,0,0,7,5.33V26.67A4.33,4.33,0,0,0,11.33,31h9.34A4.33,4.33,0,0,0,25,26.67V18.75l4.65-4A1,1,0,0,0,29.76,13.35ZM11.33,3h9.34A2.33,2.33,0,0,1,23,5H9A2.33,2.33,0,0,1,11.33,3Zm9.34,26H11.33A2.33,2.33,0,0,1,9,27H23A2.33,2.33,0,0,1,20.67,29ZM23,25H9V7H23V17.83l-.95.81-2.34-2.35a1,1,0,0,0-1.42,1.42l3,3A1,1,0,0,0,22,21a1,1,0,0,0,.65-.24l.35-.3ZM11,10a1,1,0,0,1,1-1h8a1,1,0,0,1,0,2H12A1,1,0,0,1,11,10Zm0,4a1,1,0,0,1,1-1h8a1,1,0,0,1,0,2H12A1,1,0,0,1,11,14Zm0,4a1,1,0,0,1,1-1h3a1,1,0,0,1,0,2H12A1,1,0,0,1,11,18Zm10,4a1,1,0,0,1-1,1H12a1,1,0,0,1,0-2h8A1,1,0,0,1,21,22Z" data-name="19-confirmation" fill="#595bd4" class="color000000 svgShape"></path></svg>